<svg xmlns="http://www.w3.org/2000/svg" width="150" height="150" viewBox="0 0 150 150">
    <defs>
        <linearGradient id="a" x1="50%" x2="50%" y1="0%" y2="100%">
            <stop offset="0%" stop-color="#DFDEDE"/>
            <stop offset="100%" stop-color="#BCBABA"/>
        </linearGradient>
    </defs>
    <g fill="none" fill-rule="evenodd">
        <path fill="#DBF0FD" d="M14.278 81.334C5.816 54.519 30.937 35.244 50.884 22.78c19.948-12.465 43.273-14.053 56.989.07 13.716 14.121 4.884 23.666 9.452 35.622s20.7 22.995 17.005 43.356c-3.852 21.222-44.394 25.213-68.906 20.421-30.138-5.891-45.35-22.55-51.146-40.915z"/>
        <g transform="translate(19 23)">
            <rect width="56" height="102" x="1.12" y="1.12" fill="url(#a)" fill-rule="nonzero" rx="4"/>
            <path fill="#003E8A" fill-rule="nonzero" d="M53.12 2.12a3 3 0 0 1 3 3v94a3 3 0 0 1-3 3h-48a3 3 0 0 1-3-3v-94a3 3 0 0 1 3-3h48zm0-2h-48a5 5 0 0 0-5 5v94a5 5 0 0 0 5 5h48a5 5 0 0 0 5-5v-94a5 5 0 0 0-5-5z"/>
            <rect width="56" height="102" x="5" y="1.12" fill="#FFF" fill-rule="nonzero" rx="4"/>
            <rect width="56" height="13" x="5" y="90.12" fill="#D4D3D3" fill-rule="nonzero" rx="4"/>
            <path fill="#D4D3D3" fill-rule="nonzero" d="M9 1.12h48a4 4 0 0 1 4 4v5H5v-5a4 4 0 0 1 4-4z"/>
            <path fill="#003E8A" fill-rule="nonzero" d="M57 2.12a3 3 0 0 1 3 3v94a3 3 0 0 1-3 3H9a3 3 0 0 1-3-3v-94a3 3 0 0 1 3-3h48zm0-2H9a5 5 0 0 0-5 5v94a5 5 0 0 0 5 5h48a5 5 0 0 0 5-5v-94a5 5 0 0 0-5-5z"/>
            <path fill="#FFF" fill-rule="nonzero" d="M98.45 29L86.16 14.87a1.16 1.16 0 0 0-2 .77V43.8a1.16 1.16 0 0 0 2 .77l12.29-14.08a1.17 1.17 0 0 0 0-1.49z"/>
            <path fill="#FFF" fill-rule="nonzero" d="M36.06 21.57h50.06v16.3H36.06a1.94 1.94 0 0 1-1.94-1.94V23.52a1.94 1.94 0 0 1 1.94-1.95z"/>
            <circle cx="33" cy="96.12" r="2" fill="#FFF" fill-rule="nonzero"/>
            <path fill="#003E8A" fill-rule="nonzero" d="M33 95.12a1 1 0 1 1 0 2 1 1 0 0 1 0-2zm0-2a3 3 0 1 0 0 6 3 3 0 0 0 0-6zM19.12 52.38h8v4.06h-8zM13.78 60.95h13.33v3.75H13.78zM11.12 69.37h16v3.75h-16z"/>
            <path stroke="#003E8A" stroke-linecap="round" stroke-linejoin="round" stroke-width="3" d="M13.12 39.12l3.5 3.5 8-8"/>
            <path stroke="#003E8A" stroke-linecap="round" stroke-linejoin="round" stroke-width="2" d="M5.12 10.12h55M5.12 90.12h55"/>
            <path fill="#98D3F9" fill-rule="nonzero" stroke="#003E8A" stroke-linecap="round" stroke-linejoin="round" stroke-width="2.31" d="M35.16 26.57c11.689-8.554 27.952-6.89 37.666 3.854 9.714 10.745 9.736 27.093.05 37.863S46.93 80.764 35.22 72.24"/>
            <path fill-rule="nonzero" stroke="#DBF0FD" stroke-linecap="round" stroke-linejoin="round" stroke-width="2.31" d="M51.85 26.89a22.46 22.46 0 0 1 16.91 7.65M51.85 71.88a22.46 22.46 0 0 1-16.77-7.5M72.86 41.31a22.54 22.54 0 0 1 1.49 8.07"/>
            <path fill="#003E8A" fill-rule="nonzero" d="M53.12 61.6h-2v2.52h-5V61.6h-3.66V36.3h3.66v-3.18h5v3.18h2v-3.18h5v3.697c3.087.843 4.77 2.693 5.05 5.553 0 2.98-1.64 4.963-4.92 5.95 3.51.76 5.5 2.71 6 5.84-.027 3.994-2.07 6.38-6.13 7.158v2.802h-5V61.6zm-.3-21.06h-4.64v5.58h4.62c2.19-.07 3.32-1.06 3.39-3-.067-1.647-1.197-2.507-3.39-2.58h.02zm.52 11.58h-5.16v5.19h5c2.54 0 3.843-.88 3.91-2.64-.12-1.64-1.377-2.49-3.77-2.55h.02z"/>
            <path fill="#003E8A" fill-rule="nonzero" stroke="#FFF" stroke-width="1.07" d="M89.84 65.81H63.68V59.6c0-1.14-1.2-1.7-1.89-.89L49.43 73.33a1.41 1.41 0 0 0 0 1.78l12.36 14.62c.69.82 1.89.25 1.89-.89v-6.21h26.16a2 2 0 0 0 1.84-2.11V67.93a2 2 0 0 0-1.84-2.12z"/>
            <path stroke="#98D3F9" stroke-linecap="round" stroke-linejoin="round" stroke-width="2" d="M34.62 20.62v59.5"/>
            <rect width="9" height="15.75" x="94.12" y="66.12" fill="#003E8A" fill-rule="nonzero" stroke="#FFF" rx="1"/>
            <rect width="5" height="15.75" x="107.12" y="66.12" fill="#003E8A" fill-rule="nonzero" stroke="#FFF" rx=".75"/>
            <path fill="#FFF" fill-rule="nonzero" stroke="#003E8A" stroke-linecap="round" stroke-linejoin="round" stroke-width="2" d="M79.12 90.12h33M92.12 96.12h20"/>
            <path stroke="#DBF0FD" stroke-linecap="round" d="M57.643 38.62c2.238.711 3.357 2.281 3.357 4.71M59 51c2.238.711 3.357 2.281 3.357 4.71"/>
        </g>
    </g>
</svg>
