<svg xmlns="http://www.w3.org/2000/svg" width="150" height="150" viewBox="0 0 150 150">
    <g fill="none" fill-rule="evenodd">
        <path fill="#DBF0FD" d="M70.14 43h10.975C90.838 64.008 97.8 78.674 102 87c-20.315 6.179-34.78-12-51.182-4.915C54.773 73.028 61.213 60 70.14 43z"/>
        <path fill="#98D3F9" d="M83.284 125c13.1.893 22.716 3.848 22.716 7.363 0 4.213-13.851 7.637-31 7.637s-31-3.424-31-7.637c0-3.496 9.524-6.443 22.524-7.35"/>
        <path fill="#DBF0FD" d="M81.444 98C89.26 98.477 95 100.052 95 101.927c0 2.247-8.266 4.073-18.5 4.073S58 104.174 58 101.927c0-1.864 5.684-3.437 13.442-3.92"/>
        <path fill="#FFF" d="M65 104h22c.902 9.385 1.568 17.719 2 25-8.719 4.535-17.163 3.867-26 0 .788-7.022 1.454-15.355 2-25z"/>
        <path fill="#003E8A" fill-rule="nonzero" stroke="#003E8A" stroke-width=".25" d="M95.83 101.72c0-1.5-2-2.64-6.11-3.49a70.09 70.09 0 0 0-13.43-1.14 69.94 69.94 0 0 0-13.43 1.14c-4.11.85-6.11 2-6.11 3.49 0 1 .84 1.79 2.58 2.48a.77.77 0 0 0 .57-1.42c-1.55-.61-1.62-1.06-1.62-1.06 0-.21.83-1.15 4.89-2a68.33 68.33 0 0 1 13.12-1.11 68.48 68.48 0 0 1 13.12 1.11c4.06.84 4.89 1.78 4.89 2 0 .22-.83 1.14-4.89 2a68.48 68.48 0 0 1-13.12 1.11 65.49 65.49 0 0 1-13.87-1.28.78.78 0 0 0-.92.58.77.77 0 0 0 .57.92c.65.15 1.35.28 2.1.41l-.88 12.89a.76.76 0 0 0 .71.81.75.75 0 0 0 .76-.71l.44-6.35 1.41.22a61.52 61.52 0 0 0 9.57.75 62.41 62.41 0 0 0 9.15-.68l2-.29 1.13 16.51c-.8.55-1.67.988-2.59 1.3a32.18 32.18 0 0 1-19.11 0 10.55 10.55 0 0 1-2.64-1.33l.5-7.28a.77.77 0 0 0-1.53-.11l-.51 7.48v.05c0 .67.58 1.23 2 1.92.81.4 1.62.7 1.65.71a33.71 33.71 0 0 0 20 0s.83-.31 1.63-.7c1.41-.7 2-1.25 2-1.92v-.05l-1.59-23.23c.45-.07.89-.16 1.31-.24 4.25-.86 6.25-2 6.25-3.49zm-8.6 8.83l-2.08.31a60.36 60.36 0 0 1-18.25-.07l-1.55-.24.33-4.87a79.72 79.72 0 0 0 10.61.66 79.24 79.24 0 0 0 10.6-.66l.34 4.87z"/>
        <path fill="#003E8A" fill-rule="nonzero" d="M76.29 103.76a60.24 60.24 0 0 0 7.69-.43c2.77-.38 3.81-.87 3.81-1.79s-1-1.42-3.81-1.8a60.24 60.24 0 0 0-7.69-.43 60.24 60.24 0 0 0-7.69.43c-2.78.38-3.81.87-3.81 1.8s1 1.41 3.81 1.79c2.552.307 5.12.45 7.69.43zm0-2.92a45.48 45.48 0 0 1 9.07.7 46.54 46.54 0 0 1-9.07.69 46.45 46.45 0 0 1-9.07-.69 45.39 45.39 0 0 1 9.07-.7z"/>
        <path fill="#FFF" d="M82.388 58.868l.702 3.522 3.305 1.424-3.142 1.756-.33 3.587-2.64-2.436-3.513.788 1.508-3.271-1.842-3.093 3.583.422z"/>
        <path fill="#80C7F3" d="M26.03 92l2.36 2.72 3.58-.41-1.86 3.09 1.49 3.27-3.5-.81-2.66 2.43-.31-3.59L22 96.93l3.31-1.41zM116.61 76.93l.53 3.56 3.24 1.58-3.22 1.6-.5 3.57-2.52-2.57-3.55.63 1.66-3.19-1.69-3.18 3.55.59zM47.58 58.92l.56 3.56 3.24 1.56-3.21 1.62-.48 3.57-2.54-2.55-3.54.65 1.64-3.21-1.71-3.17 3.56.57z"/>
        <path fill="#FFF" fill-rule="nonzero" stroke="#003E8A" stroke-linecap="round" stroke-width="2" d="M69.62 101.81c-3-8.22-3-11.51-4-17.27s5-5.75 6-.82c1.267 5.882 1.868 12.504 1.857 18.521M82.382 102.241c3-8.22 3.018-11.941 4.018-17.701s-5-5.75-6-.82c-1.267 5.882-2.158 12.504-2.147 18.521"/>
        <path fill="#003E8A" fill-rule="nonzero" d="M48.37 26.52a1.15 1.15 0 0 1 0-2.29h2.42l4.93-4.94h-7.35a1.15 1.15 0 0 1 0-2.29h85.26a1.15 1.15 0 0 1 0 2.29h-2.42l-4.93 4.94h7.35a1.15 1.15 0 0 1 0 2.29H48.37zm63.46-2.29h8.92l-4.46-4.46-4.46 4.46zm-14.45 0h8.92l-4.46-4.46-4.46 4.46zm-14.45 0h8.92l-4.46-4.46-4.46 4.46zm-14.45 0h8.92l-4.46-4.46-4.46 4.46zm-14.48 0h9l-4.51-4.46L54 24.23zm40.58-.48l4.46-4.46h-8.89l4.43 4.46zm28.9 0l4.52-4.46h-8.92l4.4 4.46zm-14.45 0l4.46-4.46h-8.89l4.43 4.46zm-28.9 0l4.46-4.46H75.7l4.43 4.46zm-14.45 0l4.46-4.46h-8.89l4.43 4.46z"/>
        <path fill="#003E8A" fill-rule="nonzero" d="M19.043 26.52a1.15 1.15 0 0 1 0-2.29h2.42l4.93-4.94h-7.35a1.15 1.15 0 0 1 0-2.29h85.26a1.15 1.15 0 0 1 0 2.29h-2.42l-4.93 4.94h7.35a1.15 1.15 0 0 1 0 2.29h-85.26zm63.46-2.29h8.92l-4.46-4.46-4.46 4.46zm-14.45 0h8.92l-4.46-4.46-4.46 4.46zm-14.45 0h8.92l-4.46-4.46-4.46 4.46zm-14.45 0h8.92l-4.46-4.46-4.46 4.46zm-14.48 0h9l-4.51-4.46-4.49 4.46zm40.58-.48l4.46-4.46h-8.89l4.43 4.46zm28.9 0l4.52-4.46h-8.95l4.43 4.46zm-14.45 0l4.46-4.46h-8.89l4.43 4.46zm-28.9 0l4.46-4.46h-8.89l4.43 4.46zm-14.45 0l4.46-4.46h-8.89l4.43 4.46zM121.882 86.15a.9.9 0 0 1-.28 0 1.13 1.13 0 0 1-.83-1.38l3.93-38.13-9.55-3.32-24 22.4-.09.11a1.14 1.14 0 0 1-1.6.23 1.1 1.1 0 0 1-.45-.75 1.16 1.16 0 0 1 .21-.85l23.67-22-.14-.23-.06-.07a1.12 1.12 0 0 1 0-.86l2.63-7.72a6 6 0 0 1 5.68-4 6.12 6.12 0 0 1 1.94.32l1.92.66v-5.39h2.29v6.09l.2.08a6 6 0 0 1 3.8 7.66l-2.64 7.71a1.15 1.15 0 0 1-1.08.78h-.22l-.34-.1-3.88 38a1.15 1.15 0 0 1-1.11.76zm-.89-54.36a3.7 3.7 0 0 0-3.51 2.52l-2.27 6.62 11.52 3.94 2.26-6.63a3.71 3.71 0 0 0-2.3-4.71l-4.54-1.53a3.87 3.87 0 0 0-1.16-.21z"/>
        <path fill="#003E8A" fill-rule="nonzero" d="M38.972 85.92a1.17 1.17 0 0 1-.94-.49l-12.78-37.87-.29.13a1.44 1.44 0 0 1-.4.09 1.16 1.16 0 0 1-.81-.32l-5.9-5.64a6 6 0 0 1-.2-8.47l2.71-2.85.05-5.33h2.29v3.48l.41-.17a6 6 0 0 1 2-.42h.25a5.82 5.82 0 0 1 4.08 1.66l5.92 5.62a1.2 1.2 0 0 1 0 1.66l-.6.62 21.43 10.51c.465.305.639.903.41 1.41a1.15 1.15 0 0 1-1.67.51l-21.81-10.76-6.27 6.58L39.872 84a1.18 1.18 0 0 1-.25 1.67 1.07 1.07 0 0 1-.65.25zm-13.79-55.57a3.71 3.71 0 0 0-2.58 1.14l-3.24 3.44a3.71 3.71 0 0 0 .12 5.24l5.02 4.83 8.4-8.8-5.07-4.84a3.68 3.68 0 0 0-2.55-1h-.1v-.01zM106.84 97.82a1.14 1.14 0 0 1-1.07-.76L80 45a.94.94 0 0 1 0-.35v-.31h-9.38v.31c.015.12.015.24 0 .36L43.27 97a1.18 1.18 0 0 1-1.11.83 1.09 1.09 0 0 1-.36-.06 1.13 1.13 0 0 1-.73-1.44l27.39-51.97h-.47a1.14 1.14 0 0 1-1.08-1.13v-8.18a6 6 0 0 1 6-6h1.23v-2.88h2.29v2.89h1.23a6 6 0 0 1 6 6v8.16a1.15 1.15 0 0 1-1.08 1.13h-.45l25.81 52a1.15 1.15 0 0 1-.7 1.44 1.23 1.23 0 0 1-.4.03zM72.9 31.35a3.7 3.7 0 0 0-3.7 3.7v7h12.16v-7a3.72 3.72 0 0 0-3.71-3.7H72.9z"/>
    </g>
</svg>
